<svg xmlns="http://www.w3.org/2000/svg" width="800" height="800" viewBox="0 0 73 73"><g fill="none" fill-rule="nonzero"><rect width="71" height="71" x="-1" y="-1" fill="#FFF" stroke="#091E2E" stroke-width="2" rx="14" transform="translate(2 2)"/><path fill="#000" d="M47.155 50.28c.325-2.703.227-3.1 2.24-2.661l.511.044c1.549.07 3.574-.249 4.763-.801 2.562-1.189 4.08-3.173 1.555-2.652-5.76 1.189-6.156-.762-6.156-.762 6.083-9.025 8.625-20.482 6.43-23.286-5.986-7.65-16.348-4.032-16.522-3.939l-.055.01c-1.138-.236-2.412-.377-3.843-.4-2.607-.043-4.585.684-6.085 1.821 0 0-18.486-7.616-17.626 9.578.183 3.658 5.242 27.676 11.278 20.422 2.205-2.653 4.337-4.896 4.337-4.896a5.6 5.6 0 0 0 3.655.933l.103-.088a4 4 0 0 0 .04 1.033c-1.554 1.737-1.097 2.042-4.205 2.682-3.145.648-1.298 1.801-.092 2.103 1.463.366 4.846.884 7.132-2.316l-.091.365c.61.488.569 3.507.655 5.664s.23 4.17.67 5.356c.44 1.187.959 4.243 5.044 3.368 3.414-.73 6.024-1.783 6.262-11.578"/><path fill="#000" d="M39.563 63.992c-1.807 0-2.983-.699-3.698-1.373-1.078-1.018-1.506-2.33-1.762-3.112l-.11-.327c-.515-1.39-.69-3.39-.793-5.965-.016-.387-.026-.786-.038-1.208-.01-.309-.02-.697-.036-1.102a7.8 7.8 0 0 1-2.052.649c-1.274.217-2.644.147-4.071-.21-1.008-.252-2.054-.774-2.651-1.58-1.739 1.522-3.397 1.316-4.3 1.014-1.595-.531-3.021-2.025-4.362-4.566-.956-1.81-1.88-4.168-2.746-7.01-1.51-4.947-2.47-10.159-2.555-11.87-.268-5.355 1.174-9.185 4.284-11.383 4.907-3.466 12.342-1.427 15.053-.502 1.82-1.097 3.963-1.632 6.384-1.593 1.3.021 2.539.135 3.69.34 1.199-.377 3.569-.918 6.281-.885 4.998.06 9.14 2.008 11.977 5.633 2.024 2.587 1.023 8.018.247 11.026-1.093 4.23-3.008 8.73-5.36 12.647.638.005 1.564-.072 2.88-.344 2.595-.536 3.354.856 3.56 1.48.825 2.499-2.762 4.388-3.881 4.907-1.434.666-3.772 1.072-5.687.984l-.083-.006-.504-.044-.05.42-.047.41c-.129 4.964-.838 8.108-2.297 10.185-1.53 2.178-3.655 2.788-5.528 3.19a8.4 8.4 0 0 1-1.745.195M35.76 45.925c1.166.933 1.268 2.69 1.36 5.972q.015.615.037 1.159c.043 1.096.146 3.663.549 4.748q.082.228.16.474c.449 1.372.674 2.06 2.611 1.646 1.626-.349 2.462-.662 3.117-1.593.951-1.355 1.483-4.08 1.58-8.099l1.98.048-1.966-.236.058-.49c.188-1.618.324-2.786 1.405-3.559.868-.62 1.856-.56 2.643-.418-.865-.654-1.104-1.42-1.168-1.735l-.165-.812.464-.688c2.672-3.964 4.874-8.835 6.044-13.365 1.202-4.655.836-7.127.47-7.594-4.853-6.2-13.268-3.64-14.146-3.35l-.149.08-.745.139-.381-.079a18.7 18.7 0 0 0-3.472-.36c-1.968-.033-3.555.432-4.857 1.42l-.903.685-1.048-.432c-2.239-.915-8.815-2.756-12.285-.298-1.927 1.364-2.804 4.038-2.609 7.946.065 1.29.941 6.175 2.388 10.912 1.998 6.547 3.815 8.722 4.573 8.975.132.045.476-.222.817-.633 2.222-2.672 4.336-4.9 4.425-4.993l1.146-1.206 1.385.92a3.67 3.67 0 0 0 1.807.622l3.304-2.818-.478 4.885c-.011.11-.016.259.027.536l.144.926-.625.698-.072.081 1.815.838z"/><path fill="#336791" d="M56.224 44.21c-5.76 1.189-6.157-.762-6.157-.762 6.083-9.025 8.626-20.483 6.431-23.286-5.986-7.649-16.349-4.032-16.522-3.938l-.056.01c-1.138-.236-2.412-.377-3.843-.4-2.607-.043-4.584.683-6.085 1.821 0 0-18.486-7.616-17.626 9.578.182 3.658 5.242 27.677 11.277 20.422 2.206-2.653 4.337-4.896 4.337-4.896 1.059.703 2.326 1.062 3.655.933l.103-.088a4 4 0 0 0 .041 1.033c-1.554 1.737-1.098 2.042-4.206 2.682-3.145.648-1.297 1.802-.09 2.103 1.461.366 4.844.884 7.13-2.316l-.091.365c.61.488 1.037 3.174.965 5.609s-.12 4.106.36 5.412.959 4.243 5.045 3.368c3.414-.732 5.183-2.628 5.43-5.79.174-2.249.569-1.916.594-3.926l.317-.952c.366-3.048.058-4.03 2.162-3.574l.511.045c1.548.07 3.574-.249 4.763-.802 2.561-1.187 4.08-3.172 1.555-2.65"/><path fill="#FFF" d="M39.77 62.772c-3.406 0-4.485-2.697-4.927-3.8-.646-1.616-.785-7.889-.641-13.033a.66.66 0 1 1 1.32.037c-.167 5.933.069 11.31.547 12.506.746 1.865 1.878 3.497 5.078 2.812 3.038-.652 4.176-1.804 4.683-4.742.389-2.254 1.158-8.667 1.252-9.933a.66.66 0 1 1 1.317.099c-.099 1.317-.864 7.718-1.268 10.06-.598 3.469-2.145 5.043-5.707 5.806a8 8 0 0 1-1.655.188M21.302 49.6c-.325 0-.62-.06-.875-.145-2.213-.738-4.32-4.34-6.263-10.708-1.48-4.848-2.417-9.908-2.5-11.552-.243-4.875 1.012-8.324 3.732-10.25 5.381-3.814 14.434-.183 14.816-.027a.66.66 0 0 1-.499 1.223c-.087-.036-8.768-3.513-13.556-.118-2.326 1.65-3.394 4.713-3.174 9.106.069 1.386.945 6.324 2.443 11.232 1.735 5.685 3.71 9.272 5.418 9.842.268.09 1.084.361 2.25-1.041 2.195-2.64 4.21-4.748 4.231-4.769a.66.66 0 0 1 .953.914c-.02.02-2.005 2.096-4.169 4.7-1.024 1.232-2.007 1.593-2.807 1.593m28.723-5.562a.659.659 0 0 1-.547-1.029c6.15-9.124 8.308-20.15 6.46-22.512-2.327-2.972-5.613-4.525-9.766-4.615-3.075-.066-5.52.72-5.919.856l-.1.041a.662.662 0 0 1-.565-1.189q.03-.018.177-.073l-.009.003.009-.003c.679-.249 3.16-.993 6.234-.958 4.595.049 8.391 1.82 10.977 5.125 1.223 1.563 1.226 5.165.008 9.882-1.242 4.81-3.579 9.978-6.411 14.181a.66.66 0 0 1-.548.29m.315 4.224c-1.05 0-1.991-.148-2.555-.486-.579-.347-.69-.819-.704-1.069-.158-2.776 1.374-3.259 2.155-3.48a8 8 0 0 0-.424-.558c-.455-.569-1.08-1.348-1.56-2.514-.075-.182-.311-.605-.584-1.096-1.48-2.655-4.562-8.18-2.583-11.01.916-1.309 2.74-1.824 5.428-1.537-.79-2.408-4.556-9.943-13.489-10.09-2.686-.044-4.89.782-6.545 2.454-3.707 3.744-3.573 10.517-3.571 10.585a.66.66 0 1 1-1.32.035c-.008-.3-.146-7.41 3.953-11.55 1.918-1.937 4.443-2.893 7.505-2.843 5.715.094 9.394 3 11.473 5.42 2.267 2.638 3.378 5.548 3.47 6.52.068.722-.45.866-.555.888l-.239.005c-2.637-.422-4.329-.129-5.029.87-1.505 2.152 1.41 7.379 2.654 9.61.318.57.547.982.652 1.236.409.991.942 1.657 1.37 2.192.377.471.703.88.82 1.359.054.095.823 1.232 5.387.29 1.144-.235 1.83-.034 2.04.6.412 1.248-1.902 2.703-3.183 3.298-1.149.533-2.98.87-4.566.87m-1.943-1.664c.145.146.87.398 2.37.334 1.333-.057 2.74-.347 3.584-.74 1.08-.5 1.8-1.061 2.173-1.444l-.207.038c-2.918.603-4.982.522-6.134-.238a3 3 0 0 1-.224-.166c-.125.049-.24.081-.322.104-.654.184-1.33.374-1.24 2.112m-18.85 3.689a9.4 9.4 0 0 1-2.266-.294c-.807-.202-2.168-.81-2.147-1.808.023-1.12 1.652-1.456 2.265-1.582 2.215-.456 2.36-.64 3.052-1.518.202-.256.453-.575.795-.958.509-.569 1.064-.857 1.652-.857.409 0 .745.138.966.23.707.293 1.296 1.002 1.539 1.849.219.764.114 1.5-.294 2.07-1.34 1.876-3.262 2.868-5.561 2.868m-2.987-2.045c.199.154.598.36 1.042.47.674.169 1.329.254 1.946.254 1.88 0 3.39-.778 4.488-2.314.228-.32.16-.727.098-.94-.128-.449-.446-.856-.774-.992-.178-.074-.326-.13-.462-.13-.073 0-.294 0-.667.417-.316.352-.543.64-.743.895-.862 1.094-1.257 1.466-3.822 1.994-.626.128-.947.26-1.106.346m5.076-3.045a.66.66 0 0 1-.652-.56 3 3 0 0 1-.033-.331c-1.681-.031-3.304-.753-4.535-2.038-1.557-1.625-2.266-3.876-1.944-6.175.35-2.498.219-4.703.148-5.887-.02-.33-.033-.567-.032-.732 0-.209.005-.763 1.857-1.701.658-.334 1.979-.917 3.422-1.066 2.39-.247 3.965.817 4.437 2.998 1.273 5.886.1 8.49-.755 10.39-.16.355-.31.69-.43 1.013l-.107.285c-.452 1.213-.843 2.26-.723 3.043a.66.66 0 0 1-.552.752zm-5.724-15.54.026.471c.072 1.23.208 3.52-.16 6.148-.264 1.897.315 3.748 1.59 5.079 1.009 1.051 2.336 1.632 3.7 1.632h.027c.153-.644.407-1.323.68-2.055l.105-.284c.136-.365.295-.72.464-1.094.824-1.83 1.85-4.109.668-9.57-.233-1.082-.8-1.708-1.733-1.914-1.914-.423-4.768 1.017-5.367 1.587m3.984-.28c-.033.233.427.856 1.028.94.6.083 1.112-.404 1.145-.637.033-.234-.427-.491-1.028-.575-.6-.083-1.113.039-1.145.272m1.166 1.169-.169-.012c-.372-.051-.748-.286-1.006-.628-.09-.12-.238-.352-.21-.56.043-.304.414-.487.994-.487q.195 0 .4.029c.317.044.61.135.828.256.377.21.404.445.387.566-.046.337-.58.836-1.224.836m-.947-1.13c.018.144.375.619.84.683l.107.007c.429 0 .749-.337.787-.447-.04-.076-.316-.263-.838-.335a2.4 2.4 0 0 0-.34-.025c-.336 0-.514.076-.556.117m18.04-.515c.032.233-.428.856-1.028.94s-1.113-.404-1.146-.637.428-.491 1.028-.574c.6-.084 1.113.038 1.146.27m-1.167 1.059c-.577 0-1.076-.45-1.117-.741-.047-.35.53-.616 1.122-.699q.197-.027.385-.027c.512 0 .851.15.885.393.022.157-.098.399-.305.617-.137.144-.425.392-.817.446zm.39-1.247q-.172 0-.354.026c-.596.083-.952.322-.934.45.02.141.4.551.899.551l.123-.009c.325-.045.57-.257.686-.38.184-.192.256-.373.248-.435-.012-.082-.232-.203-.668-.203M49.02 42.3a.659.659 0 0 1-.547-1.027c1.406-2.1 1.149-4.241.9-6.312-.106-.882-.216-1.794-.187-2.67.028-.9.143-1.643.254-2.362.13-.851.255-1.655.203-2.61a.66.66 0 1 1 1.319-.071c.058 1.091-.082 2.001-.218 2.882-.104.68-.213 1.383-.239 2.204-.025.775.074 1.598.179 2.47.264 2.202.564 4.697-1.114 7.203a.66.66 0 0 1-.55.293"/></g></svg>